Patient4_TMGait_0pt6_02_left_32_EMG.mot
version=1
nRows=16
nColumns=33
inDegrees=no
endheader
time	1LAddLong	2LGlutMax	3LGlutMed	4LIliopsoas	5LSemiMemb	6LBicFemLong	7LRecFem	8LVastMed	9LVastLat	10LGasMed	11LTibAnt	12lTibPost	13LPeroneusLong	14LSol	15LExtDigLong	16LFlexDigLong	17RAddLong	18RGlutMax	19RGlutMed	20RIliopsoas	21RSemiMemb	22RBicFemLong	23RRecFem	24RVastMed	25RVastLat	26RGasMed	27RTibAnt	28RTibPost	29RPeroneusLong	30RSol	31RExtDigLong	32RFlexDigLong
39.1	-0.006104	-0.007019	-0.057678	0.006561	-0.00946	0.046692	0.074463	0.019836	0.46204	-0.011139	-0.000305	0.003662	0.10605	-0.047607	0.041809	0.022125	0.02121	-0.16983	0.25314	0.050507	-0.015869	-0.24353	-0.06958	0.11307	-0.70786	0.006866	0.29236	-0.001373	-0.26871	-0.18677	-0.003815	-0.008698
39.101	-0.006256	-0.019531	-0.055695	0.002594	-0.02121	0.03952	0.11505	0.078583	0.42526	-0.04303	0.005341	-0.006256	0.10391	-0.024414	0.014801	0.011444	0.039368	-0.26855	0.44113	0.10544	-0.06897	-0.11307	-0.063782	0.2771	-0.4248	-0.004883	0.1918	-0.000916	-0.36682	-0.10788	-0.001984	-0.011597
39.102	0.007172	0.00061	-0.048523	-0.002747	-0.037842	0.006561	0.1326	0.014343	0.37201	-0.045776	0.017548	-0.00473	0.07019	-0.026703	-0.001526	-0.000305	0.051575	-0.26459	0.27496	0.074158	-0.093842	0.014191	-0.004272	0.20874	-0.20371	-0.019989	-0.14435	-0.002289	-0.18326	-0.19318	-0.003662	-0.000305
39.103	0.007172	0.000458	-0.051117	0.00061	-0.0177	0.00824	0.14206	0.012512	0.26581	-0.059204	0.048828	-0.000305	0.050354	-0.036011	0.013885	0.016022	0.030365	-0.24033	0.34119	0.073395	-0.14481	0.25345	-0.037231	0.0737	-0.13107	-0.015259	-0.18616	0.001373	0.20279	-0.24704	-0.003815	-0.004883
39.104	0.00473	-0.013885	-0.059357	-0.002136	-0.022278	-0.028076	0.15198	-0.00473	0.15381	-0.037231	0.047913	0.005341	0.050507	-0.05249	0.054626	-0.016937	-0.013885	-0.26642	0.1413	0.041199	-0.057526	0.5191	-0.14114	0.10529	-0.097961	0.003967	-0.45059	-0.000305	0.42252	-0.21683	-0.003052	-0.00061
39.105	0.009003	-0.018768	-0.067139	0.001526	0.037994	-0.04364	0.16449	0.005188	0.036011	-0.003662	0.053711	0.000458	0.048676	-0.015717	0.072327	-0.10788	-0.017395	-0.3244	0.48675	0.029602	-0.040131	0.26291	-0.089874	-0.021667	-0.077972	0.006561	-0.39795	-0.001678	0.45151	-0.2359	0.000305	0.005493
39.106	0.006256	-0.041351	-0.065155	0.005188	0.04715	-0.001221	0.18402	0.00061	-0.08255	0.033417	0.000916	0.001984	0.07782	0.011292	0.074005	-1.0593	0.002441	-0.28564	0.18555	0.005798	0.089874	0.031281	-0.09613	-0.046387	-0.06485	0.012054	-0.1767	-0.003357	0.22492	-0.21347	-0.003662	0.007324
39.107	0.007477	0.001831	-0.082092	-0.001984	0.029144	0.01709	0.22583	0.002136	-0.18005	0.023956	-0.025635	0.002747	0.082092	0.037231	0.036621	0.2034	-0.018768	-0.25345	0.24857	-0.12497	0.031586	-0.054016	-0.15671	0.17364	-0.010681	-0.00061	0.13977	-0.005341	0.7019	-0.040741	0.000153	-0.004883
39.108	0.005341	-0.042572	-0.056763	-0.003662	0.020599	0.003815	0.22736	0.016937	-0.2507	0.018005	-0.019379	-0.002747	0.10757	0.072021	-0.018005	1.0487	-0.018921	-0.1915	0.27557	-0.20813	-0.37903	0.023956	-0.059509	0.050964	-0.016632	-0.011292	-0.54321	-0.006256	0.31021	0.11337	-0.001831	-0.012665
39.109	0.00351	-0.039978	-0.053406	-0.004883	0.010376	-0.003357	0.2449	0.014343	-0.29312	-0.007935	0.000153	0.001678	0.082703	0.036469	0.002594	-0.88669	-0.031128	-0.19974	0.31418	-0.15701	-0.26977	0.055237	0.007324	0.004272	-0.053558	-0.010834	-0.54291	-0.002136	-0.018005	0.046539	-0.011902	-0.004883
39.11	0.006409	-0.00351	-0.075378	-0.010681	-0.000458	0.012054	0.27618	0.00946	-0.33539	-0.042572	0.003052	0.001373	0.060577	0.015259	0.00946	0.31662	-0.035553	-0.16739	0.31204	0.033569	0.41519	0.039215	0.028687	-0.042572	-0.002441	-0.006104	-0.39764	-0.001221	0.027771	-0.036469	-0.002899	-0.00946
39.111	0.00412	-0.036469	-0.06485	-0.004272	-0.007019	-0.007782	0.27283	0.010834	-0.38788	-0.029449	0.012665	0.005646	0.045471	-0.062103	0.002594	0.56351	-0.036774	-0.16541	0.44525	0.14908	0.43015	0.006104	0.009308	-0.083618	0.014191	0.000763	-0.009766	-0.001526	0.10147	-0.050659	-0.001526	-0.004272
39.112	0.00412	-0.050507	-0.036926	0.011749	-0.011444	-0.00824	0.28214	0.003204	-0.41748	-0.019989	0.003052	0.006104	0.068359	-0.070038	-0.018311	-0.01358	-0.02655	-0.14343	0.17777	0.14633	0.22263	-0.044708	0.049591	-0.012054	0.019379	0.007477	0.1831	-0.000153	0.15884	0.048676	-0.000153	-0.011444
39.113	0.00824	-0.052185	-0.021973	0.021667	0.001831	0.004578	0.26413	0.00473	-0.43747	-0.005188	0.007629	0.006561	0.062561	-0.049286	-0.051575	-0.021667	-0.011597	-0.22476	-0.21729	0.053406	0.11551	-0.016937	-0.055847	0.019531	-0.006256	0.010071	0.32684	-0.005646	0.10971	0.16556	-0.003967	-0.00885
39.114	0.007172	-0.080414	-0.000458	0.018463	0.010681	0.005035	0.25604	0.009766	-0.43915	-0.007477	-0.011139	0.00061	0.027161	-0.028992	-0.064545	-0.13886	-0.016174	-0.18601	0.030212	0.073547	0.058136	-0.012207	-0.22644	0.030518	-0.061035	-0.002441	0.19852	-0.001984	0.083618	0.22797	-0.003052	-0.010529
39.115	0.008545	-0.066681	-0.02243	0.002747	0.006256	-0.005493	0.24643	0.007782	-0.41718	0.00946	0.015411	0.002441	-0.016174	-0.081329	-0.052795	-0.027466	0.005798	-0.1648	-0.036469	0.12894	0.032806	-0.042114	-0.34531	0.007477	0.031738	-0.020599	0.094757	-0.003357	-0.16327	0.24506	-0.002441	-0.012817
